<svg xmlns="http://www.w3.org/2000/svg" xmlns:xlink="http://www.w3.org/1999/xlink" viewBox="0 0 32 32"><defs><style>.cls-1{fill:#fff;}.cls-2{mask:url(#mask);}.cls-3{fill:url(#linear-gradient);}</style><mask id="mask" x="0" y="0" width="32" height="32" maskUnits="userSpaceOnUse"><g id="api"><path class="cls-1" d="M12.44,16a1.1,1.1,0,0,1-.9-.34,1.69,1.69,0,0,1-.35-.84h-.07a1.86,1.86,0,0,1-.78,1,2.46,2.46,0,0,1-1.3.33,2.55,2.55,0,0,1-1.79-.58A2.1,2.1,0,0,1,6.62,14a1.83,1.83,0,0,1,.75-1.57,4,4,0,0,1,2.33-.54h1.42v-.72A1.55,1.55,0,0,0,10.7,10a1.77,1.77,0,0,0-1.28-.41,2,2,0,0,0-1.1.29,2.44,2.44,0,0,0-.74.79L6.91,10a2.56,2.56,0,0,1,.94-1A2.91,2.91,0,0,1,9.47,8.6a3,3,0,0,1,2,.65A2.26,2.26,0,0,1,12.25,11v4h.82v1Zm-3.22-.79a2.66,2.66,0,0,0,.77-.1,1.66,1.66,0,0,0,.6-.28,1.29,1.29,0,0,0,.39-.42.94.94,0,0,0,.14-.51V12.71H9.64A2.71,2.71,0,0,0,8.23,13a.89.89,0,0,0-.44.81v.29a1,1,0,0,0,.39.83A1.69,1.69,0,0,0,9.22,15.21Z"/><path class="cls-1" d="M14.67,8.77h1.12V9.93h.05a2.06,2.06,0,0,1,.82-1A2.44,2.44,0,0,1,18,8.6a2.68,2.68,0,0,1,2.15,1,3.39,3.39,0,0,1,.58,1.19,5.4,5.4,0,0,1,.21,1.56A5.42,5.42,0,0,1,20.69,14a3.39,3.39,0,0,1-.58,1.19,2.64,2.64,0,0,1-2.15,1,2.19,2.19,0,0,1-2.12-1.33h-.05v4H14.67Zm3,6.4a1.94,1.94,0,0,0,1.5-.6A2.25,2.25,0,0,0,19.69,13V11.76a2.23,2.23,0,0,0-.54-1.56,1.94,1.94,0,0,0-1.5-.6,2.46,2.46,0,0,0-.72.1,2.09,2.09,0,0,0-.6.29,1.53,1.53,0,0,0-.4.44,1.11,1.11,0,0,0-.14.56v2.7a1.27,1.27,0,0,0,.14.63,1.48,1.48,0,0,0,.4.46,1.68,1.68,0,0,0,.6.29A2.46,2.46,0,0,0,17.65,15.17Z"/><path class="cls-1" d="M23.35,7.08a.68.68,0,0,1-.53-.18.62.62,0,0,1-.16-.45V6.27a.65.65,0,0,1,.16-.46.68.68,0,0,1,.53-.17.67.67,0,0,1,.52.17.65.65,0,0,1,.16.46v.18a.62.62,0,0,1-.16.45A.67.67,0,0,1,23.35,7.08Zm-.56,1.69h1.12V16H22.79Z"/><path class="cls-1" d="M31,31.5H1v-1H31Zm0-7H1A.5.5,0,0,1,.5,24V1A.5.5,0,0,1,1,.5H31a.5.5,0,0,1,.5.5V24A.5.5,0,0,1,31,24.5Zm-29.5-1h29V1.5H1.5Z"/></g></mask><linearGradient id="linear-gradient" y1="32" x2="32" gradientUnits="userSpaceOnUse"><stop offset="0.1" stop-color="#6fdc8c"/><stop offset="0.9" stop-color="#009d9a"/></linearGradient></defs><g id="Layer_2" data-name="Layer 2"><g id="Pictograms_positive"><g id="Cloud"><g class="cls-2"><rect class="cls-3" width="32" height="32"/></g></g></g></g></svg>