<svg xmlns="http://www.w3.org/2000/svg" xmlns:xlink="http://www.w3.org/1999/xlink" viewBox="0 0 32 32"><defs><style>.cls-1{fill:#fff;}.cls-2{mask:url(#mask);}.cls-3{fill:url(#linear-gradient);}</style><mask id="mask" x="0" y="0" width="32" height="32" maskUnits="userSpaceOnUse"><path class="cls-1" d="M27,31.5H5a.5.5,0,0,1-.5-.5V27A3,3,0,0,1,4.5,21V17a.5.5,0,0,1,.5-.5H6.75a12.05,12.05,0,0,1,5.5-4,6.58,6.58,0,1,1,7.49,0,12,12,0,0,1,5.51,4H27a.5.5,0,0,1,.5.5v4a3,3,0,0,1,0,5.92v4A.5.5,0,0,1,27,31.5Zm-21.5-1h21V27a3,3,0,0,1,0-5.92V17.5H5.5V21A3,3,0,0,1,5.5,27ZM27,22a2,2,0,1,0,2,2A2,2,0,0,0,27,22ZM5,22a2,2,0,1,0,2,2A2,2,0,0,0,5,22Zm3-5.5H24a10.89,10.89,0,0,0-5.61-3.38.5.5,0,0,1-.38-.44.51.51,0,0,1,.29-.51,5.58,5.58,0,1,0-4.53,0,.51.51,0,0,1-.09.95A10.9,10.9,0,0,0,8,16.5Zm8,13A1.5,1.5,0,1,1,17.5,28,1.5,1.5,0,0,1,16,29.5Zm0-2a.5.5,0,0,0,0,1,.5.5,0,0,0,0-1Zm-5,0A1.5,1.5,0,1,1,12.5,26,1.5,1.5,0,0,1,11,27.5Zm0-2a.5.5,0,0,0,0,1,.5.5,0,0,0,0-1Zm10,0a1.5,1.5,0,0,1-1.41-1H17.41A1.5,1.5,0,0,1,14.5,24v-.06l-2.37-1A1.52,1.52,0,0,1,11,23.5,1.5,1.5,0,1,1,12.5,22v.06l2.37,1A1.52,1.52,0,0,1,16,22.5a1.5,1.5,0,0,1,1.41,1h2.18a1.5,1.5,0,1,1,1.41,2Zm0-2a.5.5,0,0,0,0,1,.5.5,0,0,0,0-1Zm-5,0a.5.5,0,0,0,0,1,.5.5,0,0,0,0-1Zm-5-2a.5.5,0,0,0,0,1,.5.5,0,0,0,0-1Zm5,0A1.5,1.5,0,1,1,17.5,20,1.5,1.5,0,0,1,16,21.5Zm0-2a.5.5,0,0,0,0,1,.5.5,0,0,0,0-1Z"/></mask><linearGradient id="linear-gradient" y1="32" x2="32" gradientUnits="userSpaceOnUse"><stop offset="0.1" stop-color="#3ddbd9"/><stop offset="0.9" stop-color="#4589ff"/></linearGradient></defs><g id="Layer_2" data-name="Layer 2"><g id="Pictograms_positive"><g id="Cloud"><g class="cls-2"><rect class="cls-3" width="32" height="32"/></g></g></g></g></svg>