<svg xmlns="http://www.w3.org/2000/svg" xmlns:xlink="http://www.w3.org/1999/xlink" viewBox="0 0 32 32"><defs><style>.cls-1{fill:#fff;}.cls-2{mask:url(#mask);}.cls-3{fill:url(#linear-gradient);}</style><mask id="mask" x="0" y="0" width="32" height="32" maskUnits="userSpaceOnUse"><path class="cls-1" d="M21,30.5H11a.5.5,0,0,1-.5-.5V2a.5.5,0,0,1,.5-.5H21a.5.5,0,0,1,.5.5V30A.5.5,0,0,1,21,30.5Zm-1.5-1h1V2.5h-1Zm-5.9,0h4.9V24.81l-2.07,3.45a.52.52,0,0,1-.24.2Zm-2.1-6v5.76l4.16-1.66,2.46-4.1Zm1.3-1h5.7v-5l-2.1,2.8a.57.57,0,0,1-.14.13Zm-1.3-6v5.62l4.16-2.5L18,16.5Zm.5-1h6.5V9.88l-4.16,2.5Zm-.5-6v5l2.1-2.8a.57.57,0,0,1,.14-.13L17.19,9.5Zm.38-1H18.5V2.74L14.34,4.4Zm-.38-6V7.2l2.07-3.46a.52.52,0,0,1,.24-.2l2.59-1Z"/></mask><linearGradient id="linear-gradient" y1="32" x2="32" gradientUnits="userSpaceOnUse"><stop offset="0.1" stop-color="#3ddbd9"/><stop offset="0.9" stop-color="#4589ff"/></linearGradient></defs><g id="Layer_2" data-name="Layer 2"><g id="Pictograms_positive"><g id="Cloud"><g class="cls-2"><rect class="cls-3" width="32" height="32"/></g></g></g></g></svg>