<svg xmlns="http://www.w3.org/2000/svg" xmlns:xlink="http://www.w3.org/1999/xlink" viewBox="0 0 32 32"><defs><style>.cls-1{fill:#f4f4f4;}.cls-2{mask:url(#mask);}.cls-3{fill:url(#linear-gradient);}</style><mask id="mask" x="0" y="0" width="32" height="32" maskUnits="userSpaceOnUse"><path class="cls-1" d="M28.44,19.56a2,2,0,0,0-2.67,0L21,23.4A1.5,1.5,0,0,0,19.51,22H11.76A5.74,5.74,0,0,0,6,27.27L3.15,30.15l.7.7,3-3A.47.47,0,0,0,7,27.52,4.75,4.75,0,0,1,11.76,23h7.75a.51.51,0,0,1,.5.5,1.49,1.49,0,0,1-.46,1.08l-.1.08h0a1.51,1.51,0,0,1-.95.34h-5v1h5a2.5,2.5,0,0,0,1.69-.66l6.24-5.07a.92.92,0,0,1,1.29,0,.91.91,0,0,1,0,1.29l-6.1,6.1a1.45,1.45,0,0,1-.87.43L13.44,29a.54.54,0,0,0-.29.15l-1,1,.71.7.88-.87,7.15-.9a2.52,2.52,0,0,0,1.46-.71l6.1-6.1A1.91,1.91,0,0,0,28.44,19.56Z"/><path class="cls-1" d="M16.15,17.85a.48.48,0,0,0,.7,0l7.93-7.92A5.23,5.23,0,0,0,21.09,1h0a5.19,5.19,0,0,0-3.7,1.53l-.88.89-.88-.89A5.19,5.19,0,0,0,11.92,1h0A5.22,5.22,0,0,0,6.69,6.24,5.18,5.18,0,0,0,8.22,9.93ZM8.93,3.24a4.2,4.2,0,0,1,3-1.24h0a4.2,4.2,0,0,1,3,1.24l1.24,1.24a.5.5,0,0,0,.7,0l1.24-1.24a4.2,4.2,0,0,1,3-1.24h0a4.23,4.23,0,0,1,3,7.22L16.5,16.79,8.93,9.22a4.22,4.22,0,0,1,0-6Z"/></mask><linearGradient id="linear-gradient" y1="32" x2="32" gradientUnits="userSpaceOnUse"><stop offset="0.1" stop-color="#f875a4"/><stop offset="0.9" stop-color="#a770fd"/></linearGradient></defs><g id="Layer_2" data-name="Layer 2"><g id="Pictograms_positive"><g id="Cloud"><g class="cls-2"><rect class="cls-3" width="32" height="32"/></g></g></g></g></svg>