<svg data-name="Layer 1" viewBox="0 0 220 220">
  <circle cx="110" cy="110" r="110" fill="#fe8500"/>

  <path d="M42 119.5a21.14 21.14 0 0 0 20-20l1.56 21.56z" fill="#321c4c"/>
  
  <path d="M71 172.5a21.14 21.14 0 0 0 20-20l1.56 21.56z" fill="#321c4c"/>

  <path d="M71 67.5a21.14 21.14 0 0 0 20-20l1.56 21.56z" fill="#321c4c"/>
  <path d="M175 54.5h-6v-4.58a8.47 8.47 0 0 0-8.5-8.42h-44a8.47 8.47 0 0 0-8.5 8.42v120.16a8.47 8.47 0 0 0 8.5 8.42h44a8.47 8.47 0 0 0 8.5-8.42v-4.58h6c5 0 9-4.49 9-10v-91c0-5.5-4-10-9-10zm3 101c0 2.17-1.37 4-3 4h-6v-99h6c1.63 0 3 1.83 3 4z" fill="#321c4c"/>

  <path d="M58 60.5h7.06c.05 1.91.14 3.81.3 5.7a7.57 7.57 0 0 0 6.94 6.94c2.89.24 5.79.36 8.7.36s5.82-.12 8.7-.36a7.57 7.57 0 0 0 6.94-6.94 105.91 105.91 0 0 0 0-17.41 7.57 7.57 0 0 0-6.94-6.94 106.1 106.1 0 0 0-17.4 0 7.57 7.57 0 0 0-6.94 6.94c-.16 1.89-.24 3.8-.3 5.7H58a9 9 0 0 0-9 9v30.07c-1.91.05-3.81.14-5.7.3a7.57 7.57 0 0 0-6.94 6.94 105.91 105.91 0 0 0 0 17.41 7.57 7.57 0 0 0 6.94 6.94c1.89.16 3.8.24 5.7.3v31.05a9 9 0 0 0 9 9h7.06c.05 1.91.14 3.81.3 5.7a7.57 7.57 0 0 0 6.94 6.94c2.89.24 5.79.36 8.7.36s5.82-.12 8.7-.36a7.57 7.57 0 0 0 6.94-6.94 105.91 105.91 0 0 0 0-17.41 7.57 7.57 0 0 0-6.94-6.94 106.1 106.1 0 0 0-17.4 0 7.57 7.57 0 0 0-6.94 6.94c-.16 1.89-.24 3.8-.3 5.7H58a3 3 0 0 1-3-3v-31.05c1.91-.05 3.81-.14 5.7-.3a7.57 7.57 0 0 0 6.94-6.94 105.91 105.91 0 0 0 0-17.41 7.57 7.57 0 0 0-6.94-6.94c-1.89-.16-3.8-.24-5.7-.3V63.5a3 3 0 0 1 3-3zm13.34-11.21a1.6 1.6 0 0 1 1.45-1.45c2.72-.23 5.46-.34 8.21-.34s5.48.11 8.21.34a1.6 1.6 0 0 1 1.45 1.45 99.71 99.71 0 0 1 0 16.42 1.6 1.6 0 0 1-1.45 1.45 99.6 99.6 0 0 1-16.42 0 1.6 1.6 0 0 1-1.45-1.45 99.71 99.71 0 0 1 0-16.42zm0 105a1.6 1.6 0 0 1 1.45-1.45c2.72-.23 5.46-.34 8.21-.34s5.48.11 8.21.34a1.6 1.6 0 0 1 1.45 1.45 99.71 99.71 0 0 1 0 16.42 1.6 1.6 0 0 1-1.45 1.45 99.49 99.49 0 0 1-16.42 0 1.6 1.6 0 0 1-1.45-1.45 99.71 99.71 0 0 1 0-16.42zm-9.68-53a99.71 99.71 0 0 1 0 16.42 1.6 1.6 0 0 1-1.45 1.45 99.6 99.6 0 0 1-16.42 0 1.6 1.6 0 0 1-1.45-1.45 99.71 99.71 0 0 1 0-16.42 1.6 1.6 0 0 1 1.45-1.45c2.72-.23 5.46-.34 8.21-.34s5.48.11 8.21.34a1.6 1.6 0 0 1 1.45 1.45z" fill="#321c4c"/>

  <path d="M149 124.5h-20.15a4 4 0 0 1-3.66-2.53 4.19 4.19 0 0 1 .83-4.59l15.76-15.88H128a3 3 0 0 1 0-6h18.59a4 4 0 0 1 2.83 6.83l-16 16.17H149a3 3 0 0 1 0 6zm-18.71-2.9zm16.3-20.1zm-1.42-3.41z" fill="#f9f9f9"/>
</svg>
