<svg xmlns="http://www.w3.org/2000/svg" xmlns:xlink="http://www.w3.org/1999/xlink" viewBox="0 0 32 32"><defs><style>.cls-1{fill:#fff;}.cls-2{mask:url(#mask);}.cls-3{fill:url(#linear-gradient);}</style><mask id="mask" x="0" y="0" width="32" height="32" maskUnits="userSpaceOnUse"><path class="cls-1" d="M24,21.5v-1A4.51,4.51,0,0,0,28.5,16V8A4.51,4.51,0,0,0,24,3.5H16A4.51,4.51,0,0,0,11.5,8h-1A5.51,5.51,0,0,1,16,2.5h8A5.51,5.51,0,0,1,29.5,8v8A5.51,5.51,0,0,1,24,21.5Z"/><path class="cls-1" d="M16,29.5H8A5.51,5.51,0,0,1,2.5,24V16A5.51,5.51,0,0,1,8,10.5v1A4.51,4.51,0,0,0,3.5,16v8A4.51,4.51,0,0,0,8,28.5h8A4.51,4.51,0,0,0,20.5,24h1A5.51,5.51,0,0,1,16,29.5Z"/><path class="cls-1" d="M20,21.51H12a1.5,1.5,0,0,1-1.5-1.5V12a1.5,1.5,0,0,1,1.5-1.5h8a1.5,1.5,0,0,1,1.5,1.5v8A1.5,1.5,0,0,1,20,21.51Zm-8-10a.51.51,0,0,0-.5.5v8a.5.5,0,0,0,.5.5h8a.5.5,0,0,0,.5-.5V12a.5.5,0,0,0-.5-.5Z"/></mask><linearGradient id="linear-gradient" y1="32" x2="32" gradientUnits="userSpaceOnUse"><stop offset="0.1" stop-color="#f875a4"/><stop offset="0.9" stop-color="#a770fd"/></linearGradient></defs><g id="Layer_2" data-name="Layer 2"><g id="Pictograms_positive"><g id="Cloud"><g class="cls-2"><rect class="cls-3" width="32" height="32"/></g></g></g></g></svg>